<svg xmlns="http://www.w3.org/2000/svg" xmlns:xlink="http://www.w3.org/1999/xlink" width="48" zoomAndPan="magnify" viewBox="0 0 36 43.92" height="48" preserveAspectRatio="xMidYMid meet" version="1.0"><defs><clipPath id="7d910e5e03"><path d="M 2.882812 4.550781 L 32.828125 4.550781 L 32.828125 31.503906 L 2.882812 31.503906 Z M 2.882812 4.550781 " clip-rule="nonzero"/></clipPath></defs><g clip-path="url(#7d910e5e03)"><path fill="#3772ff" d="M 6.363281 25.632812 C 7.226562 25.632812 7.925781 24.929688 7.925781 24.070312 C 7.925781 23.695312 7.796875 23.355469 7.578125 23.085938 L 10.828125 18.789062 C 11.015625 18.871094 11.222656 18.914062 11.441406 18.914062 C 11.871094 18.914062 12.261719 18.742188 12.542969 18.460938 L 15.03125 19.972656 C 14.984375 20.121094 14.957031 20.277344 14.957031 20.441406 C 14.957031 21.304688 15.660156 22.003906 16.523438 22.003906 C 17.382812 22.003906 18.085938 21.304688 18.085938 20.441406 C 18.085938 20.042969 17.9375 19.679688 17.691406 19.402344 L 22.25 12.773438 C 22.925781 13.195312 23.726562 13.4375 24.582031 13.4375 C 26.609375 13.4375 28.375 12.070312 28.882812 10.113281 C 28.933594 9.910156 28.8125 9.707031 28.613281 9.652344 C 28.410156 9.601562 28.207031 9.722656 28.152344 9.925781 C 27.734375 11.550781 26.265625 12.6875 24.582031 12.6875 C 22.550781 12.6875 20.894531 11.03125 20.894531 8.996094 C 20.894531 6.964844 22.550781 5.308594 24.582031 5.308594 C 26.265625 5.308594 27.734375 6.445312 28.152344 8.070312 C 28.207031 8.269531 28.410156 8.390625 28.613281 8.339844 C 28.8125 8.289062 28.933594 8.082031 28.882812 7.882812 C 28.375 5.921875 26.609375 4.554688 24.582031 4.554688 C 22.136719 4.554688 20.144531 6.546875 20.144531 8.996094 C 20.144531 10.320312 20.726562 11.507812 21.644531 12.324219 L 17.070312 18.976562 C 16.902344 18.910156 16.714844 18.875 16.523438 18.875 C 16.09375 18.875 15.703125 19.050781 15.421875 19.332031 L 12.933594 17.820312 C 12.980469 17.671875 13.007812 17.511719 13.007812 17.351562 C 13.007812 16.488281 12.304688 15.785156 11.441406 15.785156 C 10.582031 15.785156 9.878906 16.488281 9.878906 17.351562 C 9.878906 17.722656 10.011719 18.066406 10.226562 18.335938 L 6.980469 22.628906 C 6.789062 22.550781 6.582031 22.503906 6.363281 22.503906 C 5.5 22.503906 4.800781 23.207031 4.800781 24.070312 C 4.800781 24.929688 5.5 25.632812 6.363281 25.632812 Z M 16.523438 19.628906 C 16.96875 19.628906 17.335938 19.992188 17.335938 20.441406 C 17.335938 20.890625 16.96875 21.253906 16.523438 21.253906 C 16.074219 21.253906 15.710938 20.890625 15.710938 20.441406 C 15.710938 19.992188 16.074219 19.628906 16.523438 19.628906 Z M 11.445312 16.539062 C 11.890625 16.539062 12.253906 16.902344 12.253906 17.351562 C 12.253906 17.800781 11.890625 18.164062 11.445312 18.164062 C 10.996094 18.164062 10.632812 17.800781 10.632812 17.351562 C 10.628906 16.902344 10.996094 16.539062 11.445312 16.539062 Z M 6.363281 23.257812 C 6.8125 23.257812 7.175781 23.621094 7.175781 24.070312 C 7.175781 24.515625 6.8125 24.882812 6.363281 24.882812 C 5.914062 24.882812 5.550781 24.515625 5.550781 24.070312 C 5.550781 23.621094 5.914062 23.257812 6.363281 23.257812 Z M 29.785156 30.613281 L 18.308594 30.613281 L 18.308594 26.359375 C 18.308594 26.152344 18.136719 25.984375 17.929688 25.984375 L 15.113281 25.984375 C 14.90625 25.984375 14.738281 26.152344 14.738281 26.359375 L 14.738281 30.613281 L 13.226562 30.613281 L 13.226562 24.4375 C 13.226562 24.230469 13.058594 24.0625 12.851562 24.0625 L 10.035156 24.0625 C 9.828125 24.0625 9.660156 24.230469 9.660156 24.4375 L 9.660156 30.613281 L 8.148438 30.613281 L 8.148438 28.394531 C 8.148438 28.183594 7.980469 28.015625 7.773438 28.015625 L 4.957031 28.015625 C 4.746094 28.015625 4.578125 28.183594 4.578125 28.394531 L 4.578125 30.613281 L 3.261719 30.613281 C 3.054688 30.613281 2.882812 30.78125 2.882812 30.988281 C 2.882812 31.195312 3.054688 31.363281 3.261719 31.363281 L 29.785156 31.363281 C 29.992188 31.363281 30.160156 31.195312 30.160156 30.988281 C 30.160156 30.78125 29.992188 30.613281 29.785156 30.613281 Z M 5.332031 30.613281 L 5.332031 28.769531 L 7.394531 28.769531 L 7.394531 30.613281 Z M 10.410156 30.613281 L 10.410156 24.8125 L 12.476562 24.8125 L 12.476562 30.613281 Z M 15.488281 30.613281 L 15.488281 26.738281 L 17.554688 26.738281 L 17.554688 30.613281 Z M 24.585938 6.578125 C 23.25 6.578125 22.164062 7.664062 22.164062 9 C 22.164062 10.332031 23.25 11.417969 24.585938 11.417969 C 25.585938 11.417969 26.472656 10.816406 26.839844 9.882812 C 26.914062 9.6875 27.132812 9.59375 27.324219 9.667969 C 27.519531 9.746094 27.613281 9.964844 27.539062 10.15625 C 27.058594 11.382812 25.898438 12.171875 24.585938 12.171875 C 22.835938 12.171875 21.414062 10.75 21.414062 9 C 21.414062 7.25 22.835938 5.824219 24.585938 5.824219 C 25.898438 5.824219 27.058594 6.617188 27.539062 7.839844 C 27.613281 8.03125 27.519531 8.25 27.324219 8.328125 C 27.132812 8.402344 26.914062 8.308594 26.839844 8.113281 C 26.472656 7.179688 25.585938 6.578125 24.585938 6.578125 Z M 23.433594 8.996094 C 23.433594 9.632812 23.949219 10.152344 24.585938 10.152344 C 24.910156 10.152344 25.222656 10.011719 25.441406 9.769531 C 25.582031 9.613281 25.820312 9.601562 25.972656 9.738281 C 26.128906 9.878906 26.140625 10.117188 26.003906 10.269531 C 25.640625 10.671875 25.125 10.902344 24.585938 10.902344 C 23.535156 10.902344 22.679688 10.046875 22.679688 8.996094 C 22.679688 7.945312 23.535156 7.09375 24.585938 7.09375 C 25.125 7.09375 25.640625 7.324219 26.003906 7.726562 C 26.140625 7.878906 26.128906 8.117188 25.972656 8.253906 C 25.820312 8.394531 25.582031 8.382812 25.441406 8.226562 C 25.222656 7.984375 24.910156 7.84375 24.585938 7.84375 C 23.949219 7.84375 23.433594 8.363281 23.433594 8.996094 Z M 32.4375 8.886719 L 33.011719 8.109375 C 33.097656 7.996094 33.109375 7.84375 33.046875 7.71875 C 32.980469 7.589844 32.851562 7.511719 32.710938 7.511719 L 29.972656 7.511719 C 29.851562 7.511719 29.738281 7.566406 29.667969 7.664062 L 29.039062 8.515625 L 24.574219 8.621094 C 24.367188 8.625 24.203125 8.800781 24.207031 9.007812 C 24.214844 9.210938 24.378906 9.375 24.585938 9.375 C 24.585938 9.375 24.589844 9.375 24.59375 9.375 L 29.046875 9.269531 L 29.667969 10.109375 C 29.738281 10.207031 29.851562 10.265625 29.972656 10.265625 L 32.710938 10.265625 C 32.851562 10.265625 32.980469 10.183594 33.046875 10.058594 C 33.109375 9.929688 33.097656 9.777344 33.011719 9.664062 Z M 30.160156 9.511719 L 29.703125 8.886719 L 30.160156 8.261719 L 31.964844 8.261719 L 31.667969 8.664062 C 31.570312 8.796875 31.570312 8.976562 31.667969 9.109375 L 31.964844 9.511719 Z M 24.125 22.1875 C 24.375 22.4375 24.703125 22.578125 25.054688 22.578125 C 25.058594 22.578125 25.058594 22.578125 25.0625 22.578125 C 25.410156 22.578125 25.738281 22.445312 25.988281 22.199219 C 26.238281 21.953125 26.378906 21.621094 26.378906 21.269531 C 26.382812 20.917969 26.246094 20.589844 26 20.335938 C 25.753906 20.085938 25.421875 19.949219 25.070312 19.945312 C 25.070312 19.945312 25.066406 19.945312 25.0625 19.945312 C 24.714844 19.945312 24.386719 20.082031 24.136719 20.328125 C 23.886719 20.574219 23.75 20.902344 23.746094 21.253906 C 23.746094 21.609375 23.878906 21.9375 24.125 22.1875 Z M 24.667969 20.863281 C 24.773438 20.757812 24.914062 20.699219 25.0625 20.699219 C 25.066406 20.699219 25.066406 20.699219 25.066406 20.699219 C 25.21875 20.699219 25.359375 20.757812 25.464844 20.867188 C 25.570312 20.972656 25.628906 21.117188 25.628906 21.265625 C 25.628906 21.417969 25.566406 21.558594 25.460938 21.664062 C 25.351562 21.773438 25.210938 21.828125 25.058594 21.828125 C 24.910156 21.828125 24.769531 21.769531 24.664062 21.660156 C 24.554688 21.554688 24.5 21.410156 24.5 21.261719 C 24.5 21.109375 24.558594 20.96875 24.667969 20.863281 Z M 27.316406 28.292969 C 27.363281 28.3125 27.410156 28.320312 27.460938 28.320312 C 27.5625 28.320312 27.664062 28.277344 27.738281 28.199219 C 28.34375 27.539062 28.675781 26.730469 28.695312 25.855469 C 28.71875 25.015625 28.449219 24.175781 27.921875 23.417969 C 27.949219 23.054688 27.960938 22.699219 27.96875 22.355469 C 27.96875 22.347656 27.96875 22.34375 27.96875 22.339844 C 27.945312 19.945312 27.03125 17.800781 25.328125 16.132812 C 25.183594 15.992188 24.949219 15.992188 24.804688 16.132812 C 22.695312 18.144531 22.199219 20.691406 22.15625 22.472656 C 22.15625 22.476562 22.15625 22.480469 22.15625 22.488281 C 22.160156 22.792969 22.167969 23.113281 22.191406 23.441406 C 21.675781 24.191406 21.414062 25.023438 21.433594 25.855469 C 21.453125 26.730469 21.785156 27.539062 22.394531 28.199219 C 22.464844 28.277344 22.566406 28.320312 22.671875 28.320312 C 22.71875 28.320312 22.765625 28.3125 22.8125 28.292969 C 22.957031 28.234375 23.050781 28.089844 23.046875 27.929688 C 23.023438 27.3125 23.03125 26.96875 23.105469 26.730469 C 23.21875 26.925781 23.339844 27.121094 23.480469 27.3125 C 23.535156 27.386719 23.613281 27.441406 23.703125 27.460938 C 23.550781 28.445312 23.949219 29.6875 24.878906 30.175781 C 24.933594 30.203125 24.992188 30.21875 25.054688 30.21875 C 25.109375 30.21875 25.167969 30.203125 25.222656 30.179688 C 26.054688 29.761719 26.570312 28.535156 26.4375 27.457031 C 26.527344 27.4375 26.609375 27.386719 26.664062 27.3125 C 26.800781 27.128906 26.921875 26.941406 27.03125 26.75 C 27.101562 26.988281 27.105469 27.328125 27.082031 27.929688 C 27.078125 28.089844 27.171875 28.230469 27.316406 28.292969 Z M 23.980469 26.71875 C 23.90625 26.605469 23.839844 26.496094 23.777344 26.382812 L 26.371094 26.382812 C 26.308594 26.496094 26.242188 26.605469 26.167969 26.714844 Z M 25.0625 16.9375 C 25.519531 17.421875 25.902344 17.953125 26.21875 18.511719 L 23.914062 18.511719 C 24.210938 17.972656 24.585938 17.4375 25.0625 16.9375 Z M 23.558594 19.265625 L 26.589844 19.265625 C 26.992188 20.214844 27.207031 21.25 27.21875 22.339844 C 27.191406 23.398438 27.121094 24.558594 26.71875 25.632812 L 23.414062 25.632812 C 23 24.589844 22.917969 23.515625 22.90625 22.484375 C 22.929688 21.5625 23.085938 20.417969 23.558594 19.265625 Z M 22.339844 26.691406 C 22.125 26.074219 22.132812 25.394531 22.367188 24.730469 C 22.449219 25.125 22.566406 25.523438 22.722656 25.921875 C 22.515625 26.152344 22.402344 26.394531 22.339844 26.691406 Z M 25.054688 29.394531 C 24.53125 28.984375 24.320312 28.109375 24.464844 27.46875 L 25.679688 27.464844 C 25.800781 28.171875 25.527344 29.019531 25.054688 29.394531 Z M 27.753906 24.710938 C 27.996094 25.378906 28.007812 26.066406 27.789062 26.691406 C 27.730469 26.398438 27.617188 26.160156 27.414062 25.925781 C 27.566406 25.527344 27.675781 25.121094 27.753906 24.710938 Z M 25.4375 23.273438 L 25.4375 24.324219 C 25.4375 24.53125 25.269531 24.699219 25.0625 24.699219 C 24.855469 24.699219 24.6875 24.53125 24.6875 24.324219 L 24.6875 23.273438 C 24.6875 23.066406 24.855469 22.898438 25.0625 22.898438 C 25.269531 22.898438 25.4375 23.066406 25.4375 23.273438 Z M 25.4375 23.273438 " fill-opacity="1" fill-rule="nonzero"/></g></svg>