<svg xmlns="http://www.w3.org/2000/svg" xmlns:xlink="http://www.w3.org/1999/xlink" width="48" zoomAndPan="magnify" viewBox="0 0 36 43.92" height="48" preserveAspectRatio="xMidYMid meet" version="1.0"><defs><clipPath id="39f7b5b860"><path d="M 3.625 3.59375 L 32.074219 3.59375 L 32.074219 32.042969 L 3.625 32.042969 Z M 3.625 3.59375 " clip-rule="nonzero"/></clipPath></defs><g clip-path="url(#39f7b5b860)"><path fill="#3772ff" d="M 13.058594 25.917969 C 13.058594 24.171875 11.636719 22.75 9.890625 22.75 C 8.140625 22.75 6.722656 24.171875 6.722656 25.917969 C 6.722656 27.667969 8.140625 29.085938 9.890625 29.085938 C 11.636719 29.085938 13.058594 27.667969 13.058594 25.917969 Z M 9.890625 28.195312 C 8.632812 28.195312 7.609375 27.175781 7.609375 25.917969 C 7.609375 24.664062 8.632812 23.640625 9.890625 23.640625 C 11.144531 23.640625 12.167969 24.664062 12.167969 25.917969 C 12.167969 27.175781 11.144531 28.195312 9.890625 28.195312 Z M 31.839844 24.679688 L 31.496094 24.582031 C 31.167969 24.488281 30.902344 24.25 30.769531 23.925781 C 30.636719 23.601562 30.65625 23.246094 30.824219 22.945312 L 31 22.632812 C 31.097656 22.460938 31.066406 22.242188 30.925781 22.101562 L 29.761719 20.929688 C 29.621094 20.789062 29.40625 20.757812 29.230469 20.855469 L 28.914062 21.027344 C 28.785156 21.101562 28.640625 21.144531 28.496094 21.160156 L 28.496094 9.269531 L 28.859375 9.082031 L 29.761719 10.8125 C 29.84375 10.972656 30.015625 11.066406 30.195312 11.050781 C 30.371094 11.035156 30.523438 10.914062 30.578125 10.742188 L 32.144531 5.789062 C 32.214844 5.554688 32.085938 5.304688 31.851562 5.230469 L 26.898438 3.664062 C 26.726562 3.609375 26.539062 3.664062 26.421875 3.804688 C 26.308594 3.941406 26.285156 4.136719 26.371094 4.296875 L 27.269531 6.027344 L 17.242188 11.242188 L 15.253906 7.425781 C 15.140625 7.207031 14.875 7.121094 14.65625 7.234375 L 3.882812 12.835938 C 3.777344 12.890625 3.699219 12.984375 3.664062 13.097656 C 3.628906 13.210938 3.640625 13.332031 3.695312 13.4375 L 4.871094 15.699219 C 4.949219 15.851562 5.105469 15.9375 5.265625 15.9375 C 5.335938 15.9375 5.40625 15.921875 5.46875 15.886719 L 7.308594 14.929688 L 7.308594 21.144531 C 7.171875 21.125 7.039062 21.082031 6.917969 21.011719 L 6.605469 20.835938 C 6.433594 20.738281 6.214844 20.769531 6.074219 20.910156 L 4.902344 22.074219 C 4.757812 22.214844 4.726562 22.433594 4.824219 22.605469 L 5 22.921875 C 5.164062 23.21875 5.183594 23.574219 5.046875 23.898438 C 4.914062 24.21875 4.648438 24.457031 4.316406 24.550781 L 3.972656 24.648438 C 3.78125 24.703125 3.648438 24.875 3.648438 25.074219 L 3.644531 26.730469 C 3.644531 26.925781 3.773438 27.101562 3.964844 27.15625 L 4.3125 27.257812 C 4.640625 27.351562 4.902344 27.589844 5.035156 27.914062 C 5.167969 28.238281 5.148438 28.59375 4.980469 28.890625 L 4.808594 29.203125 C 4.710938 29.378906 4.738281 29.59375 4.878906 29.734375 L 6.046875 30.910156 C 6.1875 31.050781 6.40625 31.082031 6.578125 30.984375 L 6.894531 30.808594 C 7.191406 30.644531 7.546875 30.625 7.867188 30.761719 C 8.191406 30.894531 8.429688 31.160156 8.519531 31.488281 L 8.617188 31.835938 C 8.671875 32.027344 8.847656 32.160156 9.046875 32.160156 L 10.699219 32.164062 C 10.699219 32.164062 10.699219 32.164062 10.703125 32.164062 C 10.898438 32.164062 11.074219 32.03125 11.128906 31.839844 L 11.226562 31.496094 C 11.347656 31.070312 11.726562 30.765625 12.15625 30.699219 C 12.195312 30.886719 12.265625 31.074219 12.367188 31.253906 C 12.703125 31.832031 13.28125 32.164062 13.949219 32.164062 L 21.855469 32.164062 C 22.527344 32.164062 23.105469 31.832031 23.4375 31.253906 C 23.542969 31.070312 23.613281 30.882812 23.65625 30.6875 C 24.074219 30.761719 24.429688 31.066406 24.546875 31.492188 L 24.648438 31.835938 C 24.699219 32.027344 24.875 32.160156 25.074219 32.160156 L 26.726562 32.164062 C 26.925781 32.164062 27.101562 32.035156 27.15625 31.84375 L 27.257812 31.496094 C 27.347656 31.167969 27.589844 30.90625 27.910156 30.773438 C 28.234375 30.640625 28.589844 30.660156 28.886719 30.824219 L 29.203125 31.003906 C 29.375 31.101562 29.59375 31.070312 29.734375 30.929688 L 30.90625 29.761719 C 31.046875 29.621094 31.078125 29.40625 30.980469 29.230469 L 30.808594 28.917969 C 30.640625 28.621094 30.625 28.261719 30.757812 27.941406 C 30.894531 27.617188 31.160156 27.378906 31.488281 27.289062 L 31.835938 27.191406 C 32.027344 27.136719 32.15625 26.960938 32.160156 26.761719 L 32.164062 25.109375 C 32.164062 24.910156 32.03125 24.734375 31.839844 24.679688 Z M 27.605469 20.867188 C 27.453125 20.726562 27.34375 20.550781 27.285156 20.347656 L 27.1875 20.003906 C 27.132812 19.8125 26.960938 19.679688 26.761719 19.679688 L 25.109375 19.671875 C 25.109375 19.671875 25.105469 19.671875 25.105469 19.671875 C 24.910156 19.671875 24.734375 19.804688 24.679688 19.996094 L 24.578125 20.34375 C 24.554688 20.433594 24.515625 20.519531 24.46875 20.601562 L 24.46875 11.363281 L 27.605469 9.730469 Z M 20.851562 22.605469 L 21.027344 22.921875 C 21.191406 23.21875 21.210938 23.574219 21.074219 23.898438 C 20.972656 24.144531 20.796875 24.339844 20.570312 24.460938 L 19.484375 22.578125 C 19.367188 22.375 19.21875 22.199219 19.042969 22.058594 L 19.042969 14.183594 L 22.183594 12.550781 L 22.183594 20.847656 C 22.15625 20.863281 22.125 20.882812 22.101562 20.910156 L 20.929688 22.074219 C 20.789062 22.214844 20.757812 22.433594 20.851562 22.605469 Z M 17.902344 21.664062 C 17.816406 21.664062 17.734375 21.671875 17.652344 21.679688 L 17.652344 14.90625 L 18.15625 14.648438 L 18.15625 21.679688 C 18.074219 21.671875 17.988281 21.664062 17.902344 21.664062 Z M 16.324219 22.578125 L 15.226562 24.480469 C 15.011719 24.355469 14.839844 24.164062 14.742188 23.925781 C 14.609375 23.601562 14.628906 23.246094 14.796875 22.949219 L 14.972656 22.632812 C 15.070312 22.460938 15.039062 22.242188 14.898438 22.101562 L 13.734375 20.929688 C 13.699219 20.898438 13.664062 20.871094 13.621094 20.851562 L 13.621094 11.738281 C 13.984375 12.433594 14.230469 12.90625 14.476562 13.378906 C 14.773438 13.949219 15.070312 14.519531 15.570312 15.488281 C 15.625 15.59375 15.71875 15.671875 15.832031 15.707031 C 15.945312 15.742188 16.066406 15.730469 16.171875 15.675781 L 16.761719 15.371094 L 16.761719 22.058594 C 16.589844 22.199219 16.441406 22.371094 16.324219 22.578125 Z M 12.230469 12.371094 L 12.730469 12.109375 L 12.730469 21.097656 C 12.570312 21.15625 12.398438 21.179688 12.230469 21.160156 Z M 23.074219 12.089844 L 23.578125 11.828125 L 23.578125 21.148438 C 23.40625 21.164062 23.234375 21.136719 23.074219 21.074219 Z M 5.453125 14.890625 L 4.6875 13.421875 L 14.671875 8.230469 L 16.65625 12.050781 C 16.769531 12.269531 17.039062 12.351562 17.257812 12.238281 L 28.078125 6.613281 C 28.183594 6.558594 28.261719 6.464844 28.296875 6.351562 C 28.332031 6.238281 28.320312 6.117188 28.265625 6.011719 L 27.65625 4.839844 L 31.160156 5.945312 L 30.054688 9.449219 L 29.441406 8.273438 C 29.328125 8.054688 29.0625 7.972656 28.84375 8.085938 L 27.847656 8.601562 C 27.84375 8.605469 27.839844 8.605469 27.835938 8.609375 L 23.820312 10.695312 C 23.816406 10.699219 23.808594 10.703125 23.804688 10.703125 L 18.390625 13.519531 C 18.390625 13.519531 18.386719 13.523438 18.386719 13.523438 L 17.027344 14.230469 C 17.011719 14.234375 16.996094 14.246094 16.980469 14.253906 L 16.15625 14.679688 C 15.773438 13.945312 15.519531 13.457031 15.265625 12.96875 C 14.96875 12.398438 14.671875 11.828125 14.171875 10.859375 C 14.117188 10.757812 14.023438 10.675781 13.910156 10.640625 C 13.796875 10.605469 13.675781 10.617188 13.570312 10.671875 L 12.96875 10.984375 C 12.96875 10.984375 12.964844 10.984375 12.964844 10.988281 Z M 11.339844 12.835938 L 11.339844 20.554688 C 11.304688 20.488281 11.277344 20.421875 11.257812 20.351562 L 11.160156 20.003906 C 11.109375 19.8125 10.933594 19.679688 10.734375 19.679688 L 9.078125 19.671875 C 8.878906 19.671875 8.707031 19.804688 8.652344 19.996094 L 8.550781 20.34375 C 8.488281 20.554688 8.367188 20.742188 8.199219 20.882812 L 8.199219 14.46875 Z M 10.371094 31.253906 L 10.367188 31.273438 L 9.386719 31.269531 L 9.378906 31.25 C 9.214844 30.65625 8.789062 30.179688 8.210938 29.941406 C 7.636719 29.699219 6.996094 29.730469 6.460938 30.03125 L 6.441406 30.042969 L 5.75 29.347656 L 5.757812 29.328125 C 6.058594 28.789062 6.097656 28.152344 5.859375 27.574219 C 5.621094 26.996094 5.148438 26.570312 4.558594 26.402344 L 4.535156 26.394531 L 4.539062 25.414062 L 4.558594 25.40625 C 5.152344 25.242188 5.628906 24.816406 5.871094 24.238281 C 6.109375 23.664062 6.074219 23.027344 5.777344 22.488281 L 5.765625 22.46875 L 6.464844 21.777344 L 6.480469 21.789062 C 6.890625 22.019531 7.355469 22.09375 7.808594 22.011719 C 7.832031 22.011719 7.851562 22.007812 7.871094 22 C 7.996094 21.976562 8.117188 21.9375 8.234375 21.890625 C 8.8125 21.652344 9.238281 21.175781 9.40625 20.585938 L 9.414062 20.566406 L 10.394531 20.566406 L 10.402344 20.589844 C 10.566406 21.179688 10.992188 21.65625 11.566406 21.898438 C 11.578125 21.902344 11.589844 21.90625 11.597656 21.910156 C 11.617188 21.917969 11.636719 21.925781 11.65625 21.933594 C 12.207031 22.132812 12.808594 22.089844 13.320312 21.808594 L 13.339844 21.796875 L 14.03125 22.492188 L 14.019531 22.511719 C 13.71875 23.046875 13.679688 23.6875 13.917969 24.265625 C 14.09375 24.6875 14.398438 25.03125 14.78125 25.25 L 12.367188 29.425781 C 12.296875 29.546875 12.242188 29.671875 12.203125 29.796875 C 11.359375 29.84375 10.609375 30.417969 10.371094 31.253906 Z M 22.667969 30.808594 C 22.492188 31.109375 22.207031 31.273438 21.855469 31.273438 L 13.949219 31.273438 C 13.601562 31.273438 13.3125 31.109375 13.140625 30.804688 C 13.042969 30.640625 13 30.464844 13.011719 30.289062 C 13.011719 30.285156 13.011719 30.28125 13.011719 30.277344 C 13.019531 30.136719 13.0625 30 13.140625 29.871094 L 17.09375 23.023438 C 17.175781 22.878906 17.289062 22.765625 17.417969 22.683594 C 17.425781 22.679688 17.429688 22.675781 17.4375 22.671875 C 17.574219 22.597656 17.730469 22.554688 17.902344 22.554688 C 18.074219 22.554688 18.234375 22.597656 18.371094 22.671875 C 18.375 22.675781 18.382812 22.679688 18.386719 22.683594 C 18.519531 22.765625 18.628906 22.878906 18.714844 23.023438 L 22.667969 29.871094 C 22.742188 30 22.785156 30.132812 22.792969 30.265625 C 22.796875 30.273438 22.796875 30.277344 22.796875 30.285156 C 22.808594 30.460938 22.765625 30.636719 22.667969 30.808594 Z M 31.269531 26.425781 L 31.246094 26.429688 C 30.65625 26.597656 30.179688 27.019531 29.9375 27.597656 C 29.699219 28.171875 29.730469 28.8125 30.027344 29.347656 L 30.039062 29.367188 L 29.34375 30.0625 L 29.324219 30.050781 C 28.789062 29.746094 28.148438 29.710938 27.574219 29.949219 C 26.996094 30.1875 26.566406 30.660156 26.398438 31.25 L 26.394531 31.273438 L 25.414062 31.269531 L 25.40625 31.25 C 25.175781 30.421875 24.4375 29.847656 23.601562 29.785156 C 23.558594 29.664062 23.507812 29.542969 23.4375 29.425781 L 21.015625 25.230469 C 21.40625 25.015625 21.71875 24.667969 21.898438 24.242188 C 22.136719 23.664062 22.105469 23.027344 21.804688 22.488281 L 21.796875 22.46875 L 22.492188 21.777344 L 22.511719 21.789062 C 23.019531 22.074219 23.617188 22.121094 24.171875 21.925781 C 24.179688 21.921875 24.191406 21.917969 24.199219 21.914062 C 24.21875 21.90625 24.242188 21.898438 24.261719 21.890625 C 24.839844 21.652344 25.265625 21.175781 25.433594 20.585938 L 25.441406 20.566406 L 26.421875 20.566406 L 26.429688 20.589844 C 26.59375 21.179688 27.019531 21.65625 27.59375 21.898438 C 27.707031 21.945312 27.820312 21.980469 27.9375 22.007812 C 27.953125 22.011719 27.96875 22.015625 27.988281 22.019531 C 28.449219 22.109375 28.929688 22.039062 29.347656 21.808594 L 29.367188 21.796875 L 30.058594 22.492188 L 30.046875 22.511719 C 29.746094 23.046875 29.710938 23.6875 29.945312 24.265625 C 30.183594 24.839844 30.660156 25.269531 31.25 25.4375 L 31.273438 25.441406 Z M 25.917969 22.75 C 24.171875 22.75 22.75 24.171875 22.75 25.917969 C 22.75 27.667969 24.171875 29.085938 25.917969 29.085938 C 27.664062 29.085938 29.085938 27.667969 29.085938 25.917969 C 29.085938 24.171875 27.664062 22.75 25.917969 22.75 Z M 25.917969 28.195312 C 24.660156 28.195312 23.640625 27.175781 23.640625 25.917969 C 23.640625 24.664062 24.660156 23.640625 25.917969 23.640625 C 27.171875 23.640625 28.195312 24.664062 28.195312 25.917969 C 28.195312 27.175781 27.171875 28.195312 25.917969 28.195312 Z M 18.347656 25.078125 L 18.347656 27.949219 C 18.347656 28.195312 18.148438 28.394531 17.902344 28.394531 C 17.65625 28.394531 17.457031 28.195312 17.457031 27.949219 L 17.457031 25.078125 C 17.457031 24.832031 17.65625 24.632812 17.902344 24.632812 C 18.148438 24.632812 18.347656 24.832031 18.347656 25.078125 Z M 18.347656 29.292969 L 18.347656 29.667969 C 18.347656 29.914062 18.148438 30.113281 17.902344 30.113281 C 17.65625 30.113281 17.457031 29.914062 17.457031 29.667969 L 17.457031 29.292969 C 17.457031 29.046875 17.65625 28.847656 17.902344 28.847656 C 18.148438 28.847656 18.347656 29.046875 18.347656 29.292969 Z M 18.347656 29.292969 " fill-opacity="1" fill-rule="nonzero"/></g></svg>