<svg xmlns="http://www.w3.org/2000/svg" xmlns:xlink="http://www.w3.org/1999/xlink" width="48" zoomAndPan="magnify" viewBox="0 0 36 36.000001" height="48" preserveAspectRatio="xMidYMid meet" version="1.0"><defs><clipPath id="7ee38476ba"><path d="M 4.535156 26 L 28 26 L 28 31 L 4.535156 31 Z M 4.535156 26 " clip-rule="nonzero"/></clipPath><clipPath id="d37db75666"><path d="M 21 5 L 31.535156 5 L 31.535156 23 L 21 23 Z M 21 5 " clip-rule="nonzero"/></clipPath><clipPath id="d562886f9b"><path d="M 21 7 L 31.535156 7 L 31.535156 21 L 21 21 Z M 21 7 " clip-rule="nonzero"/></clipPath><clipPath id="1f8b62376d"><path d="M 13 4.050781 L 21 4.050781 L 21 7 L 13 7 Z M 13 4.050781 " clip-rule="nonzero"/></clipPath><clipPath id="bf0c6891ad"><path d="M 4.535156 7 L 17 7 L 17 20 L 4.535156 20 Z M 4.535156 7 " clip-rule="nonzero"/></clipPath><clipPath id="e1081b2887"><path d="M 4.535156 10 L 17 10 L 17 17 L 4.535156 17 Z M 4.535156 10 " clip-rule="nonzero"/></clipPath></defs><g clip-path="url(#7ee38476ba)"><path fill="#3772ff" d="M 25.726562 30.761719 L 6.480469 30.761719 C 5.429688 30.761719 4.535156 29.867188 4.535156 28.816406 L 4.535156 27.132812 C 4.535156 26.972656 4.640625 26.867188 4.800781 26.867188 L 27.460938 26.867188 C 27.566406 26.867188 27.722656 26.972656 27.722656 27.132812 L 27.722656 28.816406 C 27.722656 29.867188 26.828125 30.761719 25.726562 30.761719 Z M 5.0625 27.394531 L 5.0625 28.816406 C 5.0625 29.601562 5.691406 30.234375 6.480469 30.234375 L 25.726562 30.234375 C 26.515625 30.234375 27.199219 29.601562 27.199219 28.816406 L 27.199219 27.394531 Z M 5.0625 27.394531 " fill-opacity="1" fill-rule="evenodd"/></g><path fill="#3772ff" d="M 22.519531 27.394531 L 9.6875 27.394531 C 9.214844 27.394531 8.796875 26.972656 8.796875 26.449219 C 8.796875 25.976562 9.214844 25.554688 9.6875 25.554688 L 22.519531 25.554688 C 23.042969 25.554688 23.464844 25.976562 23.464844 26.449219 C 23.464844 26.972656 23.042969 27.394531 22.519531 27.394531 Z M 9.6875 26.082031 C 9.480469 26.082031 9.320312 26.238281 9.320312 26.449219 C 9.320312 26.660156 9.480469 26.867188 9.6875 26.867188 L 22.519531 26.867188 C 22.730469 26.867188 22.9375 26.660156 22.9375 26.449219 C 22.9375 26.238281 22.730469 26.082031 22.519531 26.082031 Z M 9.6875 26.082031 " fill-opacity="1" fill-rule="evenodd"/><path fill="#3772ff" d="M 25.988281 26.082031 L 6.273438 26.082031 C 5.691406 26.082031 5.273438 25.660156 5.273438 25.082031 L 5.273438 15.667969 C 5.273438 15.511719 5.324219 15.40625 5.484375 15.40625 C 5.589844 15.355469 5.691406 15.460938 5.746094 15.566406 C 6.585938 17.667969 8.585938 19.035156 10.847656 19.035156 C 13.894531 19.035156 16.367188 16.5625 16.367188 13.566406 C 16.367188 13.09375 16.3125 12.671875 16.207031 12.253906 C 16.15625 12.199219 16.207031 12.09375 16.261719 12.042969 C 16.261719 11.988281 16.367188 11.9375 16.417969 11.9375 L 21.308594 11.9375 C 21.464844 11.9375 21.570312 12.042969 21.570312 12.199219 L 21.570312 21.347656 C 21.570312 21.980469 22.097656 22.453125 22.730469 22.453125 L 26.722656 22.453125 C 26.882812 22.453125 26.988281 22.609375 26.988281 22.714844 L 26.988281 25.082031 C 26.988281 25.660156 26.566406 26.082031 25.988281 26.082031 Z M 5.796875 16.773438 L 5.796875 25.082031 C 5.796875 25.34375 6.007812 25.554688 6.273438 25.554688 L 25.988281 25.554688 C 26.25 25.554688 26.460938 25.34375 26.460938 25.082031 L 26.460938 22.976562 L 22.730469 22.976562 C 21.78125 22.976562 21.046875 22.242188 21.046875 21.347656 L 21.046875 12.460938 L 16.789062 12.460938 C 16.839844 12.832031 16.890625 13.199219 16.890625 13.566406 C 16.890625 16.878906 14.160156 19.5625 10.847656 19.5625 C 8.742188 19.5625 6.851562 18.507812 5.796875 16.773438 Z M 5.796875 16.773438 " fill-opacity="1" fill-rule="evenodd"/><path fill="#3772ff" d="M 25.359375 24.714844 L 6.851562 24.714844 C 6.691406 24.714844 6.585938 24.609375 6.585938 24.449219 L 6.585938 17.667969 C 6.585938 17.5625 6.640625 17.457031 6.746094 17.457031 C 6.851562 17.40625 6.957031 17.40625 7.058594 17.511719 C 8.058594 18.507812 9.425781 19.035156 10.847656 19.035156 C 13.894531 19.035156 16.367188 16.5625 16.367188 13.566406 C 16.367188 13.410156 16.472656 13.304688 16.628906 13.304688 L 21.308594 13.304688 C 21.464844 13.304688 21.570312 13.410156 21.570312 13.566406 L 21.570312 21.347656 C 21.570312 21.980469 22.097656 22.453125 22.730469 22.453125 L 25.359375 22.453125 C 25.515625 22.453125 25.621094 22.609375 25.621094 22.714844 L 25.621094 24.449219 C 25.621094 24.609375 25.515625 24.714844 25.359375 24.714844 Z M 7.113281 24.1875 L 25.09375 24.1875 L 25.09375 22.976562 L 22.730469 22.976562 C 21.78125 22.976562 21.046875 22.242188 21.046875 21.347656 L 21.046875 13.828125 L 16.839844 13.828125 C 16.734375 17.035156 14.105469 19.5625 10.847656 19.5625 C 9.480469 19.5625 8.164062 19.085938 7.113281 18.246094 Z M 7.113281 24.1875 " fill-opacity="1" fill-rule="evenodd"/><path fill="#3772ff" d="M 20.625 29.078125 L 11.632812 29.078125 C 11.265625 29.078125 10.949219 28.761719 10.949219 28.394531 L 10.949219 27.132812 C 10.949219 26.972656 11.054688 26.867188 11.214844 26.867188 L 21.046875 26.867188 C 21.203125 26.867188 21.308594 26.972656 21.308594 27.132812 L 21.308594 28.394531 C 21.308594 28.761719 20.992188 29.078125 20.625 29.078125 Z M 11.476562 27.394531 L 11.476562 28.394531 C 11.476562 28.5 11.53125 28.550781 11.632812 28.550781 L 20.625 28.550781 C 20.730469 28.550781 20.785156 28.5 20.785156 28.394531 L 20.785156 27.394531 Z M 11.476562 27.394531 " fill-opacity="1" fill-rule="evenodd"/><path fill="#3772ff" d="M 23.9375 29.65625 C 23.78125 29.65625 23.675781 29.550781 23.675781 29.394531 L 23.675781 28.234375 C 23.675781 28.078125 23.78125 27.972656 23.9375 27.972656 C 24.09375 27.972656 24.199219 28.078125 24.199219 28.234375 L 24.199219 29.394531 C 24.199219 29.550781 24.09375 29.65625 23.9375 29.65625 Z M 23.9375 29.65625 " fill-opacity="1" fill-rule="evenodd"/><path fill="#3772ff" d="M 24.882812 29.65625 C 24.777344 29.65625 24.621094 29.550781 24.621094 29.394531 L 24.621094 28.234375 C 24.621094 28.078125 24.777344 27.972656 24.882812 27.972656 C 25.042969 27.972656 25.148438 28.078125 25.148438 28.234375 L 25.148438 29.394531 C 25.148438 29.550781 25.042969 29.65625 24.882812 29.65625 Z M 24.882812 29.65625 " fill-opacity="1" fill-rule="evenodd"/><path fill="#3772ff" d="M 25.882812 29.65625 C 25.726562 29.65625 25.621094 29.550781 25.621094 29.394531 L 25.621094 28.234375 C 25.621094 28.078125 25.726562 27.972656 25.882812 27.972656 C 26.042969 27.972656 26.144531 28.078125 26.144531 28.234375 L 26.144531 29.394531 C 26.144531 29.550781 26.042969 29.65625 25.882812 29.65625 Z M 25.882812 29.65625 " fill-opacity="1" fill-rule="evenodd"/><path fill="#3772ff" d="M 9.636719 28.605469 L 6.375 28.605469 C 6.21875 28.605469 6.113281 28.5 6.113281 28.339844 C 6.113281 28.234375 6.21875 28.078125 6.375 28.078125 L 9.636719 28.078125 C 9.792969 28.078125 9.898438 28.234375 9.898438 28.339844 C 9.898438 28.5 9.792969 28.605469 9.636719 28.605469 Z M 9.636719 28.605469 " fill-opacity="1" fill-rule="evenodd"/><path fill="#3772ff" d="M 9.636719 29.550781 L 6.375 29.550781 C 6.21875 29.550781 6.113281 29.394531 6.113281 29.289062 C 6.113281 29.128906 6.21875 29.023438 6.375 29.023438 L 9.636719 29.023438 C 9.792969 29.023438 9.898438 29.128906 9.898438 29.289062 C 9.898438 29.394531 9.792969 29.550781 9.636719 29.550781 Z M 9.636719 29.550781 " fill-opacity="1" fill-rule="evenodd"/><g clip-path="url(#d37db75666)"><path fill="#3772ff" d="M 29.773438 22.976562 L 22.730469 22.976562 C 21.78125 22.976562 21.046875 22.242188 21.046875 21.347656 L 21.046875 7.519531 C 21.046875 6.574219 21.78125 5.835938 22.730469 5.835938 L 29.773438 5.835938 C 30.71875 5.835938 31.457031 6.574219 31.457031 7.519531 L 31.457031 21.347656 C 31.457031 22.242188 30.71875 22.976562 29.773438 22.976562 Z M 22.730469 6.363281 C 22.097656 6.363281 21.570312 6.890625 21.570312 7.519531 L 21.570312 21.347656 C 21.570312 21.980469 22.097656 22.453125 22.730469 22.453125 L 29.773438 22.453125 C 30.40625 22.453125 30.929688 21.980469 30.929688 21.347656 L 30.929688 7.519531 C 30.929688 6.890625 30.40625 6.363281 29.773438 6.363281 Z M 22.730469 6.363281 " fill-opacity="1" fill-rule="evenodd"/></g><g clip-path="url(#d562886f9b)"><path fill="#3772ff" d="M 31.195312 20.875 L 21.308594 20.875 C 21.152344 20.875 21.046875 20.769531 21.046875 20.613281 L 21.046875 8.257812 C 21.046875 8.097656 21.152344 7.992188 21.308594 7.992188 L 31.195312 7.992188 C 31.351562 7.992188 31.457031 8.097656 31.457031 8.257812 L 31.457031 20.613281 C 31.457031 20.769531 31.351562 20.875 31.195312 20.875 Z M 21.570312 20.347656 L 30.929688 20.347656 L 30.929688 8.519531 L 21.570312 8.519531 Z M 21.570312 20.347656 " fill-opacity="1" fill-rule="evenodd"/></g><path fill="#3772ff" d="M 23.9375 7.46875 L 23.464844 7.46875 C 23.308594 7.46875 23.203125 7.308594 23.203125 7.203125 C 23.203125 7.046875 23.308594 6.941406 23.464844 6.941406 L 23.9375 6.941406 C 24.09375 6.941406 24.199219 7.046875 24.199219 7.203125 C 24.199219 7.308594 24.09375 7.46875 23.9375 7.46875 Z M 23.9375 7.46875 " fill-opacity="1" fill-rule="evenodd"/><path fill="#3772ff" d="M 29.039062 7.46875 L 24.9375 7.46875 C 24.777344 7.46875 24.675781 7.308594 24.675781 7.203125 C 24.675781 7.046875 24.777344 6.941406 24.9375 6.941406 L 29.039062 6.941406 C 29.195312 6.941406 29.300781 7.046875 29.300781 7.203125 C 29.300781 7.308594 29.195312 7.46875 29.039062 7.46875 Z M 29.039062 7.46875 " fill-opacity="1" fill-rule="evenodd"/><path fill="#3772ff" d="M 28.40625 21.925781 L 24.09375 21.925781 C 23.9375 21.925781 23.832031 21.820312 23.832031 21.664062 C 23.832031 21.507812 23.9375 21.402344 24.09375 21.402344 L 28.40625 21.402344 C 28.566406 21.402344 28.671875 21.507812 28.671875 21.664062 C 28.671875 21.820312 28.566406 21.925781 28.40625 21.925781 Z M 28.40625 21.925781 " fill-opacity="1" fill-rule="evenodd"/><path fill="#3772ff" d="M 26.777344 18.035156 L 25.726562 18.035156 C 25.621094 18.035156 25.460938 17.929688 25.460938 17.773438 L 25.359375 16.878906 C 25.304688 16.878906 25.199219 16.828125 25.148438 16.773438 L 24.410156 17.351562 C 24.304688 17.457031 24.148438 17.457031 24.09375 17.351562 L 23.359375 16.617188 C 23.253906 16.511719 23.253906 16.351562 23.308594 16.25 L 23.886719 15.511719 C 23.832031 15.460938 23.832031 15.40625 23.78125 15.300781 L 22.886719 15.195312 C 22.730469 15.195312 22.675781 15.089844 22.675781 14.933594 L 22.675781 13.882812 C 22.675781 13.777344 22.730469 13.671875 22.886719 13.621094 L 23.78125 13.515625 C 23.832031 13.460938 23.832031 13.410156 23.886719 13.304688 L 23.308594 12.621094 C 23.253906 12.515625 23.253906 12.355469 23.359375 12.253906 L 24.09375 11.515625 C 24.148438 11.410156 24.304688 11.410156 24.410156 11.464844 L 25.148438 12.042969 C 25.199219 12.042969 25.304688 11.988281 25.359375 11.988281 L 25.460938 11.042969 C 25.460938 10.9375 25.621094 10.832031 25.726562 10.832031 L 26.777344 10.832031 C 26.882812 10.832031 27.039062 10.9375 27.039062 11.042969 L 27.144531 11.988281 C 27.199219 11.988281 27.304688 12.042969 27.355469 12.042969 L 28.089844 11.464844 C 28.195312 11.410156 28.355469 11.410156 28.40625 11.515625 L 29.144531 12.253906 C 29.25 12.355469 29.25 12.515625 29.195312 12.621094 L 28.617188 13.304688 C 28.671875 13.410156 28.671875 13.460938 28.722656 13.515625 L 29.617188 13.621094 C 29.773438 13.671875 29.878906 13.777344 29.878906 13.882812 L 29.878906 14.933594 C 29.878906 15.089844 29.773438 15.195312 29.617188 15.195312 L 28.722656 15.300781 C 28.671875 15.40625 28.671875 15.460938 28.617188 15.511719 L 29.195312 16.25 C 29.25 16.351562 29.25 16.511719 29.144531 16.617188 L 28.40625 17.351562 C 28.355469 17.457031 28.195312 17.457031 28.089844 17.351562 L 27.355469 16.773438 C 27.304688 16.828125 27.199219 16.878906 27.144531 16.878906 L 27.039062 17.773438 C 27.039062 17.929688 26.882812 18.035156 26.777344 18.035156 Z M 25.988281 17.511719 L 26.566406 17.511719 L 26.621094 16.667969 C 26.671875 16.5625 26.722656 16.457031 26.828125 16.457031 C 26.988281 16.40625 27.144531 16.351562 27.25 16.25 C 27.355469 16.195312 27.460938 16.195312 27.566406 16.300781 L 28.25 16.828125 L 28.617188 16.40625 L 28.089844 15.722656 C 28.039062 15.667969 28.039062 15.511719 28.089844 15.460938 C 28.144531 15.300781 28.195312 15.144531 28.25 14.984375 C 28.300781 14.882812 28.355469 14.828125 28.460938 14.828125 L 29.355469 14.722656 L 29.355469 14.144531 L 28.460938 14.039062 C 28.355469 14.039062 28.300781 13.933594 28.25 13.828125 C 28.195312 13.722656 28.144531 13.566406 28.089844 13.410156 C 28.039062 13.304688 28.039062 13.199219 28.089844 13.144531 L 28.617188 12.460938 L 28.25 12.042969 L 27.566406 12.566406 C 27.460938 12.621094 27.355469 12.671875 27.25 12.621094 C 27.144531 12.515625 26.988281 12.460938 26.828125 12.410156 C 26.722656 12.410156 26.671875 12.304688 26.621094 12.199219 L 26.566406 11.359375 L 25.988281 11.359375 L 25.882812 12.199219 C 25.832031 12.304688 25.777344 12.410156 25.671875 12.410156 C 25.515625 12.460938 25.359375 12.515625 25.253906 12.621094 C 25.148438 12.671875 25.042969 12.621094 24.9375 12.566406 L 24.304688 12.042969 L 23.886719 12.460938 L 24.410156 13.144531 C 24.464844 13.199219 24.464844 13.304688 24.410156 13.410156 C 24.359375 13.566406 24.304688 13.722656 24.253906 13.828125 C 24.199219 13.933594 24.148438 14.039062 24.042969 14.039062 L 23.203125 14.144531 L 23.203125 14.722656 L 24.042969 14.828125 C 24.148438 14.828125 24.199219 14.882812 24.253906 14.984375 C 24.304688 15.144531 24.359375 15.300781 24.410156 15.460938 C 24.464844 15.511719 24.464844 15.667969 24.410156 15.722656 L 23.886719 16.40625 L 24.304688 16.828125 L 24.9375 16.300781 C 25.042969 16.195312 25.148438 16.195312 25.253906 16.25 C 25.359375 16.351562 25.515625 16.40625 25.671875 16.457031 C 25.777344 16.457031 25.832031 16.5625 25.882812 16.667969 Z M 25.988281 17.511719 " fill-opacity="1" fill-rule="evenodd"/><path fill="#3772ff" d="M 26.25 16.039062 C 25.359375 16.039062 24.675781 15.300781 24.675781 14.40625 C 24.675781 13.566406 25.359375 12.832031 26.25 12.832031 C 27.144531 12.832031 27.828125 13.566406 27.828125 14.40625 C 27.828125 15.300781 27.144531 16.039062 26.25 16.039062 Z M 26.25 13.355469 C 25.671875 13.355469 25.199219 13.828125 25.199219 14.40625 C 25.199219 15.039062 25.671875 15.511719 26.25 15.511719 C 26.828125 15.511719 27.304688 15.039062 27.304688 14.40625 C 27.304688 13.828125 26.828125 13.355469 26.25 13.355469 Z M 26.25 13.355469 " fill-opacity="1" fill-rule="evenodd"/><path fill="#3772ff" d="M 18.628906 22.769531 L 9.164062 22.769531 C 8.636719 22.769531 8.21875 22.347656 8.21875 21.820312 C 8.21875 21.296875 8.636719 20.875 9.164062 20.875 L 18.628906 20.875 C 19.152344 20.875 19.574219 21.296875 19.574219 21.820312 C 19.574219 22.347656 19.152344 22.769531 18.628906 22.769531 Z M 9.164062 21.402344 C 8.902344 21.402344 8.742188 21.609375 8.742188 21.820312 C 8.742188 22.085938 8.902344 22.242188 9.164062 22.242188 L 18.628906 22.242188 C 18.835938 22.242188 19.046875 22.085938 19.046875 21.820312 C 19.046875 21.609375 18.835938 21.402344 18.628906 21.402344 Z M 9.164062 21.402344 " fill-opacity="1" fill-rule="evenodd"/><path fill="#3772ff" d="M 16.15625 22.769531 L 9.164062 22.769531 C 8.636719 22.769531 8.21875 22.347656 8.21875 21.820312 C 8.21875 21.296875 8.636719 20.875 9.164062 20.875 L 16.15625 20.875 C 16.683594 20.875 17.101562 21.296875 17.101562 21.820312 C 17.101562 22.347656 16.683594 22.769531 16.15625 22.769531 Z M 9.164062 21.402344 C 8.902344 21.402344 8.742188 21.609375 8.742188 21.820312 C 8.742188 22.085938 8.902344 22.242188 9.164062 22.242188 L 16.15625 22.242188 C 16.417969 22.242188 16.578125 22.085938 16.578125 21.820312 C 16.578125 21.609375 16.417969 21.402344 16.15625 21.402344 Z M 9.164062 21.402344 " fill-opacity="1" fill-rule="evenodd"/><g clip-path="url(#1f8b62376d)"><path fill="#3772ff" d="M 14.210938 6.101562 C 14.160156 6.101562 14.105469 6.101562 14.054688 6.046875 C 13.949219 5.941406 13.949219 5.785156 14.054688 5.679688 C 14.945312 4.734375 16.15625 4.261719 17.417969 4.261719 C 18.734375 4.261719 19.941406 4.734375 20.835938 5.679688 C 20.941406 5.785156 20.941406 5.941406 20.835938 6.046875 C 20.730469 6.152344 20.574219 6.152344 20.46875 6.046875 C 19.625 5.207031 18.574219 4.785156 17.417969 4.785156 C 16.3125 4.785156 15.210938 5.207031 14.421875 6.046875 C 14.367188 6.101562 14.261719 6.101562 14.210938 6.101562 Z M 14.210938 6.101562 " fill-opacity="1" fill-rule="evenodd"/></g><path fill="#3772ff" d="M 19.785156 6.996094 C 19.679688 6.996094 19.625 6.941406 19.574219 6.890625 C 18.417969 5.734375 16.472656 5.734375 15.261719 6.890625 C 15.15625 6.996094 15 6.996094 14.894531 6.890625 C 14.789062 6.785156 14.789062 6.625 14.894531 6.519531 C 16.3125 5.152344 18.574219 5.152344 19.941406 6.519531 C 20.046875 6.625 20.046875 6.785156 19.941406 6.890625 C 19.890625 6.941406 19.835938 6.996094 19.785156 6.996094 Z M 19.785156 6.996094 " fill-opacity="1" fill-rule="evenodd"/><path fill="#3772ff" d="M 18.890625 7.835938 C 18.835938 7.835938 18.785156 7.835938 18.734375 7.78125 C 18.363281 7.414062 17.945312 7.203125 17.417969 7.203125 C 16.945312 7.203125 16.472656 7.414062 16.15625 7.78125 C 16.050781 7.886719 15.894531 7.886719 15.789062 7.78125 C 15.683594 7.679688 15.683594 7.519531 15.789062 7.414062 C 16.207031 6.941406 16.789062 6.679688 17.417969 6.679688 C 18.050781 6.679688 18.679688 6.941406 19.101562 7.414062 C 19.207031 7.519531 19.207031 7.679688 19.101562 7.78125 C 19.046875 7.835938 18.996094 7.835938 18.890625 7.835938 Z M 18.890625 7.835938 " fill-opacity="1" fill-rule="evenodd"/><path fill="#3772ff" d="M 17.417969 10.042969 C 16.839844 10.042969 16.367188 9.570312 16.367188 8.992188 C 16.367188 8.414062 16.839844 7.941406 17.417969 7.941406 C 17.996094 7.941406 18.523438 8.414062 18.523438 8.992188 C 18.523438 9.570312 17.996094 10.042969 17.417969 10.042969 Z M 17.417969 8.464844 C 17.15625 8.464844 16.890625 8.675781 16.890625 8.992188 C 16.890625 9.253906 17.15625 9.519531 17.417969 9.519531 C 17.734375 9.519531 17.996094 9.253906 17.996094 8.992188 C 17.996094 8.675781 17.734375 8.464844 17.417969 8.464844 Z M 17.417969 8.464844 " fill-opacity="1" fill-rule="evenodd"/><g clip-path="url(#bf0c6891ad)"><path fill="#3772ff" d="M 10.847656 19.5625 C 7.535156 19.5625 4.851562 16.878906 4.851562 13.566406 C 4.851562 10.253906 7.535156 7.574219 10.847656 7.574219 C 14.160156 7.574219 16.890625 10.253906 16.890625 13.566406 C 16.890625 16.878906 14.160156 19.5625 10.847656 19.5625 Z M 10.847656 8.097656 C 7.847656 8.097656 5.378906 10.515625 5.378906 13.566406 C 5.378906 16.5625 7.847656 19.035156 10.847656 19.035156 C 13.894531 19.035156 16.367188 16.5625 16.367188 13.566406 C 16.367188 10.515625 13.894531 8.097656 10.847656 8.097656 Z M 10.847656 8.097656 " fill-opacity="1" fill-rule="evenodd"/></g><path fill="#3772ff" d="M 10.847656 19.5625 C 9.320312 19.5625 8.113281 16.933594 8.113281 13.566406 C 8.113281 10.203125 9.320312 7.574219 10.847656 7.574219 C 12.421875 7.574219 13.632812 10.203125 13.632812 13.566406 C 13.632812 16.933594 12.421875 19.5625 10.847656 19.5625 Z M 10.847656 8.097656 C 9.792969 8.097656 8.636719 10.253906 8.636719 13.566406 C 8.636719 16.828125 9.792969 19.035156 10.847656 19.035156 C 11.949219 19.035156 13.105469 16.828125 13.105469 13.566406 C 13.105469 10.253906 11.949219 8.097656 10.847656 8.097656 Z M 10.847656 8.097656 " fill-opacity="1" fill-rule="evenodd"/><g clip-path="url(#e1081b2887)"><path fill="#3772ff" d="M 10.847656 16.195312 C 7.480469 16.195312 4.851562 15.039062 4.851562 13.566406 C 4.851562 12.042969 7.480469 10.886719 10.847656 10.886719 C 14.210938 10.886719 16.890625 12.042969 16.890625 13.566406 C 16.890625 15.039062 14.210938 16.195312 10.847656 16.195312 Z M 10.847656 11.410156 C 7.585938 11.410156 5.378906 12.515625 5.378906 13.566406 C 5.378906 14.566406 7.585938 15.667969 10.847656 15.667969 C 14.160156 15.667969 16.367188 14.566406 16.367188 13.566406 C 16.367188 12.515625 14.160156 11.410156 10.847656 11.410156 Z M 10.847656 11.410156 " fill-opacity="1" fill-rule="evenodd"/></g></svg>