<svg xmlns="http://www.w3.org/2000/svg" xmlns:xlink="http://www.w3.org/1999/xlink" width="48" zoomAndPan="magnify" viewBox="0 0 36 36.000001" height="48" preserveAspectRatio="xMidYMid meet" version="1.0"><defs><clipPath id="d338a9bf0e"><path d="M 5.523438 26 L 28 26 L 28 29.847656 L 5.523438 29.847656 Z M 5.523438 26 " clip-rule="nonzero"/></clipPath><clipPath id="d5d40105ab"><path d="M 20 6 L 30.332031 6 L 30.332031 23 L 20 23 Z M 20 6 " clip-rule="nonzero"/></clipPath><clipPath id="3688cd35c2"><path d="M 20 8 L 30.332031 8 L 30.332031 21 L 20 21 Z M 20 8 " clip-rule="nonzero"/></clipPath><clipPath id="2586275e54"><path d="M 14 5.035156 L 21 5.035156 L 21 7 L 14 7 Z M 14 5.035156 " clip-rule="nonzero"/></clipPath><clipPath id="9465bfa968"><path d="M 5.523438 8 L 17 8 L 17 20 L 5.523438 20 Z M 5.523438 8 " clip-rule="nonzero"/></clipPath><clipPath id="3e232b62ef"><path d="M 5.523438 11 L 17 11 L 17 17 L 5.523438 17 Z M 5.523438 11 " clip-rule="nonzero"/></clipPath></defs><g clip-path="url(#d338a9bf0e)"><path fill="#3772ff" d="M 25.15625 29.789062 L 7.324219 29.789062 C 6.351562 29.789062 5.523438 28.960938 5.523438 27.984375 L 5.523438 26.425781 C 5.523438 26.28125 5.617188 26.183594 5.765625 26.183594 L 26.765625 26.183594 C 26.863281 26.183594 27.007812 26.28125 27.007812 26.425781 L 27.007812 27.984375 C 27.007812 28.960938 26.179688 29.789062 25.15625 29.789062 Z M 6.007812 26.667969 L 6.007812 27.984375 C 6.007812 28.714844 6.59375 29.300781 7.324219 29.300781 L 25.15625 29.300781 C 25.890625 29.300781 26.523438 28.714844 26.523438 27.984375 L 26.523438 26.667969 Z M 6.007812 26.667969 " fill-opacity="1" fill-rule="evenodd"/></g><path fill="#3772ff" d="M 22.1875 26.667969 L 10.296875 26.667969 C 9.859375 26.667969 9.46875 26.28125 9.46875 25.792969 C 9.46875 25.355469 9.859375 24.964844 10.296875 24.964844 L 22.1875 24.964844 C 22.671875 24.964844 23.0625 25.355469 23.0625 25.792969 C 23.0625 26.28125 22.671875 26.667969 22.1875 26.667969 Z M 10.296875 25.453125 C 10.101562 25.453125 9.957031 25.597656 9.957031 25.792969 C 9.957031 25.988281 10.101562 26.183594 10.296875 26.183594 L 22.1875 26.183594 C 22.378906 26.183594 22.574219 25.988281 22.574219 25.792969 C 22.574219 25.597656 22.378906 25.453125 22.1875 25.453125 Z M 10.296875 25.453125 " fill-opacity="1" fill-rule="evenodd"/><path fill="#3772ff" d="M 25.402344 25.453125 L 7.128906 25.453125 C 6.59375 25.453125 6.203125 25.0625 6.203125 24.527344 L 6.203125 15.804688 C 6.203125 15.65625 6.253906 15.558594 6.398438 15.558594 C 6.496094 15.511719 6.59375 15.609375 6.640625 15.707031 C 7.421875 17.65625 9.273438 18.921875 11.367188 18.921875 C 14.195312 18.921875 16.484375 16.632812 16.484375 13.855469 C 16.484375 13.414062 16.4375 13.027344 16.339844 12.636719 C 16.289062 12.585938 16.339844 12.488281 16.386719 12.441406 C 16.386719 12.394531 16.484375 12.34375 16.535156 12.34375 L 21.066406 12.34375 C 21.210938 12.34375 21.308594 12.441406 21.308594 12.585938 L 21.308594 21.066406 C 21.308594 21.652344 21.796875 22.089844 22.378906 22.089844 L 26.082031 22.089844 C 26.230469 22.089844 26.328125 22.234375 26.328125 22.332031 L 26.328125 24.527344 C 26.328125 25.0625 25.9375 25.453125 25.402344 25.453125 Z M 6.691406 16.828125 L 6.691406 24.527344 C 6.691406 24.769531 6.886719 24.964844 7.128906 24.964844 L 25.402344 24.964844 C 25.644531 24.964844 25.839844 24.769531 25.839844 24.527344 L 25.839844 22.578125 L 22.378906 22.578125 C 21.503906 22.578125 20.820312 21.894531 20.820312 21.066406 L 20.820312 12.832031 L 16.875 12.832031 C 16.921875 13.171875 16.972656 13.511719 16.972656 13.855469 C 16.972656 16.925781 14.4375 19.410156 11.367188 19.410156 C 9.417969 19.410156 7.664062 18.433594 6.691406 16.828125 Z M 6.691406 16.828125 " fill-opacity="1" fill-rule="evenodd"/><path fill="#3772ff" d="M 24.816406 24.183594 L 7.664062 24.183594 C 7.519531 24.183594 7.421875 24.085938 7.421875 23.941406 L 7.421875 17.65625 C 7.421875 17.558594 7.46875 17.460938 7.566406 17.460938 C 7.664062 17.410156 7.761719 17.410156 7.859375 17.507812 C 8.785156 18.433594 10.054688 18.921875 11.367188 18.921875 C 14.195312 18.921875 16.484375 16.632812 16.484375 13.855469 C 16.484375 13.707031 16.582031 13.609375 16.730469 13.609375 L 21.066406 13.609375 C 21.210938 13.609375 21.308594 13.707031 21.308594 13.855469 L 21.308594 21.066406 C 21.308594 21.652344 21.796875 22.089844 22.378906 22.089844 L 24.816406 22.089844 C 24.964844 22.089844 25.0625 22.234375 25.0625 22.332031 L 25.0625 23.941406 C 25.0625 24.085938 24.964844 24.183594 24.816406 24.183594 Z M 7.910156 23.695312 L 24.574219 23.695312 L 24.574219 22.578125 L 22.378906 22.578125 C 21.503906 22.578125 20.820312 21.894531 20.820312 21.066406 L 20.820312 14.097656 L 16.921875 14.097656 C 16.824219 17.070312 14.390625 19.410156 11.367188 19.410156 C 10.101562 19.410156 8.882812 18.972656 7.910156 18.191406 Z M 7.910156 23.695312 " fill-opacity="1" fill-rule="evenodd"/><path fill="#3772ff" d="M 20.433594 28.230469 L 12.101562 28.230469 C 11.757812 28.230469 11.464844 27.9375 11.464844 27.59375 L 11.464844 26.425781 C 11.464844 26.28125 11.5625 26.183594 11.710938 26.183594 L 20.820312 26.183594 C 20.96875 26.183594 21.066406 26.28125 21.066406 26.425781 L 21.066406 27.59375 C 21.066406 27.9375 20.773438 28.230469 20.433594 28.230469 Z M 11.953125 26.667969 L 11.953125 27.59375 C 11.953125 27.691406 12.003906 27.742188 12.101562 27.742188 L 20.433594 27.742188 C 20.527344 27.742188 20.578125 27.691406 20.578125 27.59375 L 20.578125 26.667969 Z M 11.953125 26.667969 " fill-opacity="1" fill-rule="evenodd"/><path fill="#3772ff" d="M 23.5 28.765625 C 23.355469 28.765625 23.257812 28.667969 23.257812 28.519531 L 23.257812 27.449219 C 23.257812 27.304688 23.355469 27.207031 23.5 27.207031 C 23.648438 27.207031 23.746094 27.304688 23.746094 27.449219 L 23.746094 28.519531 C 23.746094 28.667969 23.648438 28.765625 23.5 28.765625 Z M 23.5 28.765625 " fill-opacity="1" fill-rule="evenodd"/><path fill="#3772ff" d="M 24.378906 28.765625 C 24.28125 28.765625 24.136719 28.667969 24.136719 28.519531 L 24.136719 27.449219 C 24.136719 27.304688 24.28125 27.207031 24.378906 27.207031 C 24.523438 27.207031 24.621094 27.304688 24.621094 27.449219 L 24.621094 28.519531 C 24.621094 28.667969 24.523438 28.765625 24.378906 28.765625 Z M 24.378906 28.765625 " fill-opacity="1" fill-rule="evenodd"/><path fill="#3772ff" d="M 25.304688 28.765625 C 25.15625 28.765625 25.0625 28.667969 25.0625 28.519531 L 25.0625 27.449219 C 25.0625 27.304688 25.15625 27.207031 25.304688 27.207031 C 25.449219 27.207031 25.546875 27.304688 25.546875 27.449219 L 25.546875 28.519531 C 25.546875 28.667969 25.449219 28.765625 25.304688 28.765625 Z M 25.304688 28.765625 " fill-opacity="1" fill-rule="evenodd"/><path fill="#3772ff" d="M 10.246094 27.789062 L 7.226562 27.789062 C 7.082031 27.789062 6.984375 27.691406 6.984375 27.546875 C 6.984375 27.449219 7.082031 27.304688 7.226562 27.304688 L 10.246094 27.304688 C 10.394531 27.304688 10.492188 27.449219 10.492188 27.546875 C 10.492188 27.691406 10.394531 27.789062 10.246094 27.789062 Z M 10.246094 27.789062 " fill-opacity="1" fill-rule="evenodd"/><path fill="#3772ff" d="M 10.246094 28.667969 L 7.226562 28.667969 C 7.082031 28.667969 6.984375 28.519531 6.984375 28.421875 C 6.984375 28.277344 7.082031 28.179688 7.226562 28.179688 L 10.246094 28.179688 C 10.394531 28.179688 10.492188 28.277344 10.492188 28.421875 C 10.492188 28.519531 10.394531 28.667969 10.246094 28.667969 Z M 10.246094 28.667969 " fill-opacity="1" fill-rule="evenodd"/><g clip-path="url(#d5d40105ab)"><path fill="#3772ff" d="M 28.910156 22.578125 L 22.378906 22.578125 C 21.503906 22.578125 20.820312 21.894531 20.820312 21.066406 L 20.820312 8.25 C 20.820312 7.375 21.503906 6.691406 22.378906 6.691406 L 28.910156 6.691406 C 29.785156 6.691406 30.46875 7.375 30.46875 8.25 L 30.46875 21.066406 C 30.46875 21.894531 29.785156 22.578125 28.910156 22.578125 Z M 22.378906 7.179688 C 21.796875 7.179688 21.308594 7.667969 21.308594 8.25 L 21.308594 21.066406 C 21.308594 21.652344 21.796875 22.089844 22.378906 22.089844 L 28.910156 22.089844 C 29.496094 22.089844 29.980469 21.652344 29.980469 21.066406 L 29.980469 8.25 C 29.980469 7.667969 29.496094 7.179688 28.910156 7.179688 Z M 22.378906 7.179688 " fill-opacity="1" fill-rule="evenodd"/></g><g clip-path="url(#3688cd35c2)"><path fill="#3772ff" d="M 30.226562 20.628906 L 21.066406 20.628906 C 20.917969 20.628906 20.820312 20.53125 20.820312 20.382812 L 20.820312 8.933594 C 20.820312 8.785156 20.917969 8.691406 21.066406 8.691406 L 30.226562 8.691406 C 30.371094 8.691406 30.46875 8.785156 30.46875 8.933594 L 30.46875 20.382812 C 30.46875 20.53125 30.371094 20.628906 30.226562 20.628906 Z M 21.308594 20.140625 L 29.980469 20.140625 L 29.980469 9.175781 L 21.308594 9.175781 Z M 21.308594 20.140625 " fill-opacity="1" fill-rule="evenodd"/></g><path fill="#3772ff" d="M 23.5 8.203125 L 23.0625 8.203125 C 22.917969 8.203125 22.820312 8.054688 22.820312 7.957031 C 22.820312 7.8125 22.917969 7.714844 23.0625 7.714844 L 23.5 7.714844 C 23.648438 7.714844 23.746094 7.8125 23.746094 7.957031 C 23.746094 8.054688 23.648438 8.203125 23.5 8.203125 Z M 23.5 8.203125 " fill-opacity="1" fill-rule="evenodd"/><path fill="#3772ff" d="M 28.226562 8.203125 L 24.425781 8.203125 C 24.28125 8.203125 24.183594 8.054688 24.183594 7.957031 C 24.183594 7.8125 24.28125 7.714844 24.425781 7.714844 L 28.226562 7.714844 C 28.375 7.714844 28.472656 7.8125 28.472656 7.957031 C 28.472656 8.054688 28.375 8.203125 28.226562 8.203125 Z M 28.226562 8.203125 " fill-opacity="1" fill-rule="evenodd"/><path fill="#3772ff" d="M 27.644531 21.601562 L 23.648438 21.601562 C 23.5 21.601562 23.402344 21.503906 23.402344 21.359375 C 23.402344 21.210938 23.5 21.113281 23.648438 21.113281 L 27.644531 21.113281 C 27.789062 21.113281 27.886719 21.210938 27.886719 21.359375 C 27.886719 21.503906 27.789062 21.601562 27.644531 21.601562 Z M 27.644531 21.601562 " fill-opacity="1" fill-rule="evenodd"/><path fill="#3772ff" d="M 26.132812 17.996094 L 25.15625 17.996094 C 25.0625 17.996094 24.914062 17.898438 24.914062 17.753906 L 24.816406 16.925781 C 24.769531 16.925781 24.671875 16.875 24.621094 16.828125 L 23.941406 17.363281 C 23.84375 17.460938 23.695312 17.460938 23.648438 17.363281 L 22.964844 16.679688 C 22.867188 16.582031 22.867188 16.4375 22.917969 16.339844 L 23.453125 15.65625 C 23.402344 15.609375 23.402344 15.558594 23.355469 15.460938 L 22.527344 15.363281 C 22.378906 15.363281 22.332031 15.265625 22.332031 15.121094 L 22.332031 14.148438 C 22.332031 14.050781 22.378906 13.953125 22.527344 13.902344 L 23.355469 13.804688 C 23.402344 13.757812 23.402344 13.707031 23.453125 13.609375 L 22.917969 12.976562 C 22.867188 12.878906 22.867188 12.734375 22.964844 12.636719 L 23.648438 11.953125 C 23.695312 11.855469 23.84375 11.855469 23.941406 11.90625 L 24.621094 12.441406 C 24.671875 12.441406 24.769531 12.394531 24.816406 12.394531 L 24.914062 11.515625 C 24.914062 11.417969 25.0625 11.320312 25.15625 11.320312 L 26.132812 11.320312 C 26.230469 11.320312 26.375 11.417969 26.375 11.515625 L 26.472656 12.394531 C 26.523438 12.394531 26.621094 12.441406 26.667969 12.441406 L 27.351562 11.90625 C 27.449219 11.855469 27.59375 11.855469 27.644531 11.953125 L 28.324219 12.636719 C 28.421875 12.734375 28.421875 12.878906 28.375 12.976562 L 27.839844 13.609375 C 27.886719 13.707031 27.886719 13.757812 27.933594 13.804688 L 28.765625 13.902344 C 28.910156 13.953125 29.007812 14.050781 29.007812 14.148438 L 29.007812 15.121094 C 29.007812 15.265625 28.910156 15.363281 28.765625 15.363281 L 27.933594 15.460938 C 27.886719 15.558594 27.886719 15.609375 27.839844 15.65625 L 28.375 16.339844 C 28.421875 16.4375 28.421875 16.582031 28.324219 16.679688 L 27.644531 17.363281 C 27.59375 17.460938 27.449219 17.460938 27.351562 17.363281 L 26.667969 16.828125 C 26.621094 16.875 26.523438 16.925781 26.472656 16.925781 L 26.375 17.753906 C 26.375 17.898438 26.230469 17.996094 26.132812 17.996094 Z M 25.402344 17.507812 L 25.9375 17.507812 L 25.988281 16.730469 C 26.035156 16.632812 26.082031 16.535156 26.179688 16.535156 C 26.328125 16.484375 26.472656 16.4375 26.570312 16.339844 C 26.667969 16.289062 26.765625 16.289062 26.863281 16.386719 L 27.496094 16.875 L 27.839844 16.484375 L 27.351562 15.851562 C 27.300781 15.804688 27.300781 15.65625 27.351562 15.609375 C 27.398438 15.460938 27.449219 15.316406 27.496094 15.171875 C 27.546875 15.074219 27.59375 15.023438 27.691406 15.023438 L 28.519531 14.925781 L 28.519531 14.390625 L 27.691406 14.292969 C 27.59375 14.292969 27.546875 14.195312 27.496094 14.097656 C 27.449219 14 27.398438 13.855469 27.351562 13.707031 C 27.300781 13.609375 27.300781 13.511719 27.351562 13.464844 L 27.839844 12.832031 L 27.496094 12.441406 L 26.863281 12.929688 C 26.765625 12.976562 26.667969 13.027344 26.570312 12.976562 C 26.472656 12.878906 26.328125 12.832031 26.179688 12.78125 C 26.082031 12.78125 26.035156 12.683594 25.988281 12.585938 L 25.9375 11.808594 L 25.402344 11.808594 L 25.304688 12.585938 C 25.253906 12.683594 25.207031 12.78125 25.109375 12.78125 C 24.964844 12.832031 24.816406 12.878906 24.71875 12.976562 C 24.621094 13.027344 24.523438 12.976562 24.425781 12.929688 L 23.84375 12.441406 L 23.453125 12.832031 L 23.941406 13.464844 C 23.988281 13.511719 23.988281 13.609375 23.941406 13.707031 C 23.890625 13.855469 23.84375 14 23.792969 14.097656 C 23.746094 14.195312 23.695312 14.292969 23.597656 14.292969 L 22.820312 14.390625 L 22.820312 14.925781 L 23.597656 15.023438 C 23.695312 15.023438 23.746094 15.074219 23.792969 15.171875 C 23.84375 15.316406 23.890625 15.460938 23.941406 15.609375 C 23.988281 15.65625 23.988281 15.804688 23.941406 15.851562 L 23.453125 16.484375 L 23.84375 16.875 L 24.425781 16.386719 C 24.523438 16.289062 24.621094 16.289062 24.71875 16.339844 C 24.816406 16.4375 24.964844 16.484375 25.109375 16.535156 C 25.207031 16.535156 25.253906 16.632812 25.304688 16.730469 Z M 25.402344 17.507812 " fill-opacity="1" fill-rule="evenodd"/><path fill="#3772ff" d="M 25.644531 16.144531 C 24.816406 16.144531 24.183594 15.460938 24.183594 14.632812 C 24.183594 13.855469 24.816406 13.171875 25.644531 13.171875 C 26.472656 13.171875 27.105469 13.855469 27.105469 14.632812 C 27.105469 15.460938 26.472656 16.144531 25.644531 16.144531 Z M 25.644531 13.660156 C 25.109375 13.660156 24.671875 14.097656 24.671875 14.632812 C 24.671875 15.21875 25.109375 15.65625 25.644531 15.65625 C 26.179688 15.65625 26.621094 15.21875 26.621094 14.632812 C 26.621094 14.097656 26.179688 13.660156 25.644531 13.660156 Z M 25.644531 13.660156 " fill-opacity="1" fill-rule="evenodd"/><path fill="#3772ff" d="M 18.582031 22.382812 L 9.808594 22.382812 C 9.320312 22.382812 8.933594 21.992188 8.933594 21.503906 C 8.933594 21.015625 9.320312 20.628906 9.808594 20.628906 L 18.582031 20.628906 C 19.066406 20.628906 19.457031 21.015625 19.457031 21.503906 C 19.457031 21.992188 19.066406 22.382812 18.582031 22.382812 Z M 9.808594 21.113281 C 9.566406 21.113281 9.417969 21.308594 9.417969 21.503906 C 9.417969 21.75 9.566406 21.894531 9.808594 21.894531 L 18.582031 21.894531 C 18.773438 21.894531 18.96875 21.75 18.96875 21.503906 C 18.96875 21.308594 18.773438 21.113281 18.582031 21.113281 Z M 9.808594 21.113281 " fill-opacity="1" fill-rule="evenodd"/><path fill="#3772ff" d="M 16.289062 22.382812 L 9.808594 22.382812 C 9.320312 22.382812 8.933594 21.992188 8.933594 21.503906 C 8.933594 21.015625 9.320312 20.628906 9.808594 20.628906 L 16.289062 20.628906 C 16.777344 20.628906 17.167969 21.015625 17.167969 21.503906 C 17.167969 21.992188 16.777344 22.382812 16.289062 22.382812 Z M 9.808594 21.113281 C 9.566406 21.113281 9.417969 21.308594 9.417969 21.503906 C 9.417969 21.75 9.566406 21.894531 9.808594 21.894531 L 16.289062 21.894531 C 16.535156 21.894531 16.679688 21.75 16.679688 21.503906 C 16.679688 21.308594 16.535156 21.113281 16.289062 21.113281 Z M 9.808594 21.113281 " fill-opacity="1" fill-rule="evenodd"/><g clip-path="url(#2586275e54)"><path fill="#3772ff" d="M 14.488281 6.933594 C 14.4375 6.933594 14.390625 6.933594 14.339844 6.886719 C 14.242188 6.789062 14.242188 6.644531 14.339844 6.546875 C 15.167969 5.667969 16.289062 5.230469 17.460938 5.230469 C 18.675781 5.230469 19.796875 5.667969 20.625 6.546875 C 20.722656 6.644531 20.722656 6.789062 20.625 6.886719 C 20.527344 6.984375 20.382812 6.984375 20.285156 6.886719 C 19.507812 6.105469 18.53125 5.71875 17.460938 5.71875 C 16.4375 5.71875 15.414062 6.105469 14.683594 6.886719 C 14.632812 6.933594 14.535156 6.933594 14.488281 6.933594 Z M 14.488281 6.933594 " fill-opacity="1" fill-rule="evenodd"/></g><path fill="#3772ff" d="M 19.652344 7.765625 C 19.554688 7.765625 19.507812 7.714844 19.457031 7.667969 C 18.386719 6.59375 16.582031 6.59375 15.460938 7.667969 C 15.363281 7.765625 15.21875 7.765625 15.121094 7.667969 C 15.023438 7.570312 15.023438 7.421875 15.121094 7.324219 C 16.4375 6.058594 18.53125 6.058594 19.796875 7.324219 C 19.894531 7.421875 19.894531 7.570312 19.796875 7.667969 C 19.75 7.714844 19.699219 7.765625 19.652344 7.765625 Z M 19.652344 7.765625 " fill-opacity="1" fill-rule="evenodd"/><path fill="#3772ff" d="M 18.824219 8.542969 C 18.773438 8.542969 18.726562 8.542969 18.675781 8.496094 C 18.335938 8.152344 17.945312 7.957031 17.460938 7.957031 C 17.019531 7.957031 16.582031 8.152344 16.289062 8.496094 C 16.191406 8.59375 16.046875 8.59375 15.949219 8.496094 C 15.851562 8.398438 15.851562 8.25 15.949219 8.152344 C 16.339844 7.714844 16.875 7.472656 17.460938 7.472656 C 18.042969 7.472656 18.628906 7.714844 19.019531 8.152344 C 19.117188 8.25 19.117188 8.398438 19.019531 8.496094 C 18.96875 8.542969 18.921875 8.542969 18.824219 8.542969 Z M 18.824219 8.542969 " fill-opacity="1" fill-rule="evenodd"/><path fill="#3772ff" d="M 17.460938 10.589844 C 16.921875 10.589844 16.484375 10.152344 16.484375 9.617188 C 16.484375 9.078125 16.921875 8.640625 17.460938 8.640625 C 17.996094 8.640625 18.484375 9.078125 18.484375 9.617188 C 18.484375 10.152344 17.996094 10.589844 17.460938 10.589844 Z M 17.460938 9.128906 C 17.214844 9.128906 16.972656 9.324219 16.972656 9.617188 C 16.972656 9.859375 17.214844 10.101562 17.460938 10.101562 C 17.75 10.101562 17.996094 9.859375 17.996094 9.617188 C 17.996094 9.324219 17.75 9.128906 17.460938 9.128906 Z M 17.460938 9.128906 " fill-opacity="1" fill-rule="evenodd"/><g clip-path="url(#9465bfa968)"><path fill="#3772ff" d="M 11.367188 19.410156 C 8.300781 19.410156 5.8125 16.925781 5.8125 13.855469 C 5.8125 10.785156 8.300781 8.300781 11.367188 8.300781 C 14.4375 8.300781 16.972656 10.785156 16.972656 13.855469 C 16.972656 16.925781 14.4375 19.410156 11.367188 19.410156 Z M 11.367188 8.785156 C 8.589844 8.785156 6.300781 11.027344 6.300781 13.855469 C 6.300781 16.632812 8.589844 18.921875 11.367188 18.921875 C 14.195312 18.921875 16.484375 16.632812 16.484375 13.855469 C 16.484375 11.027344 14.195312 8.785156 11.367188 8.785156 Z M 11.367188 8.785156 " fill-opacity="1" fill-rule="evenodd"/></g><path fill="#3772ff" d="M 11.367188 19.410156 C 9.957031 19.410156 8.835938 16.972656 8.835938 13.855469 C 8.835938 10.734375 9.957031 8.300781 11.367188 8.300781 C 12.832031 8.300781 13.953125 10.734375 13.953125 13.855469 C 13.953125 16.972656 12.832031 19.410156 11.367188 19.410156 Z M 11.367188 8.785156 C 10.394531 8.785156 9.320312 10.785156 9.320312 13.855469 C 9.320312 16.875 10.394531 18.921875 11.367188 18.921875 C 12.390625 18.921875 13.464844 16.875 13.464844 13.855469 C 13.464844 10.785156 12.390625 8.785156 11.367188 8.785156 Z M 11.367188 8.785156 " fill-opacity="1" fill-rule="evenodd"/><g clip-path="url(#3e232b62ef)"><path fill="#3772ff" d="M 11.367188 16.289062 C 8.25 16.289062 5.8125 15.21875 5.8125 13.855469 C 5.8125 12.441406 8.25 11.371094 11.367188 11.371094 C 14.488281 11.371094 16.972656 12.441406 16.972656 13.855469 C 16.972656 15.21875 14.488281 16.289062 11.367188 16.289062 Z M 11.367188 11.855469 C 8.347656 11.855469 6.300781 12.878906 6.300781 13.855469 C 6.300781 14.78125 8.347656 15.804688 11.367188 15.804688 C 14.4375 15.804688 16.484375 14.78125 16.484375 13.855469 C 16.484375 12.878906 14.4375 11.855469 11.367188 11.855469 Z M 11.367188 11.855469 " fill-opacity="1" fill-rule="evenodd"/></g></svg>